<svg width="60" height="65" viewBox="0 0 60 65" fill="none" xmlns="http://www.w3.org/2000/svg">
<g clip-path="url(#clip0_1_593)">
<path d="M11.4873 25.1795C11.7122 25.1795 11.9372 25.0937 12.1087 24.9221L13.4372 23.5936C13.7804 23.2503 13.7804 22.6939 13.4372 22.3507C13.0939 22.0075 12.5374 22.0075 12.1943 22.3507L10.8658 23.6792C10.5226 24.0225 10.5226 24.5789 10.8658 24.9221C11.0375 25.0937 11.2624 25.1795 11.4873 25.1795Z" fill="#4A101D"/>
<path d="M48.8307 24.922C49.0023 25.0936 49.2273 25.1794 49.4522 25.1794C49.6771 25.1794 49.9021 25.0936 50.0736 24.922C50.4169 24.5788 50.4169 24.0223 50.0736 23.6791L48.7452 22.3506C48.402 22.0073 47.8454 22.0073 47.5023 22.3506C47.1591 22.6938 47.1591 23.2503 47.5023 23.5935L48.8307 24.922Z" fill="#4A101D"/>
<path d="M57.3496 15.9124C52.3855 13.6071 44.9186 13.3866 43.4108 13.3658L36.2903 8.83452C34.1862 7.49554 31.7559 6.78784 29.2621 6.78784H20.8927C18.7259 6.78784 16.5561 7.30007 14.6181 8.26909L10.1599 10.4981C8.81684 11.1697 7.38023 11.6046 5.89008 11.7909L2.4157 12.2252C1.03852 12.3973 0 13.5737 0 14.9616V20.5712C0 22.2131 1.10262 23.6749 2.68137 24.126L6.83344 25.3123C7.54664 27.5703 9.6607 29.2121 12.1515 29.2121C14.2233 29.2121 16.0334 28.0755 16.9946 26.3939H43.9446C44.9059 28.0755 46.716 29.2121 48.7877 29.2121C51.8623 29.2121 54.3636 26.7108 54.3636 23.6362C54.3636 20.5617 51.8623 18.0603 48.7877 18.0603C45.7132 18.0603 43.2118 20.5616 43.2118 23.6362C43.2118 23.9777 43.2443 24.3115 43.3034 24.6361H17.6358C17.6948 24.3114 17.7273 23.9776 17.7273 23.6362C17.7273 20.5617 15.2259 18.0603 12.1514 18.0603C9.15211 18.0603 6.69949 20.4411 6.58125 23.4119L3.16418 22.4357C2.33625 22.1992 1.75781 21.4325 1.75781 20.5712V17.9395H2.75766C3.24305 17.9395 3.63656 17.546 3.63656 17.0606C3.63656 16.5752 3.24305 16.1817 2.75766 16.1817H1.75781V14.9616C1.75781 14.4584 2.13434 14.0318 2.63367 13.9694L6.10805 13.5351C7.79648 13.3241 9.4241 12.8312 10.946 12.0703L11.3469 11.8699L12.9727 13.4882C14.0258 14.5413 15.4261 15.1214 16.9154 15.1214H18.7274C19.2128 15.1214 19.6063 14.7279 19.6063 14.2425C19.6063 13.7571 19.2128 13.3636 18.7274 13.3636H16.9154C16.7618 13.3636 16.6099 13.3535 16.4597 13.3357L17.4308 9.04616C18.5537 8.71663 19.7237 8.54554 20.8928 8.54554H25.3637V13.3635H22.4851C21.9997 13.3635 21.6062 13.757 21.6062 14.2424C21.6062 14.7278 21.9997 15.1213 22.4851 15.1213H43.1515C43.2348 15.1213 51.5381 15.1515 56.6093 17.5065C56.9068 17.6447 57.1719 17.8339 57.3984 18.0603H56.3031C55.8177 18.0603 55.4242 18.4539 55.4242 18.9392C55.4242 19.4246 55.8177 19.8182 56.3031 19.8182H58.2264C58.2359 19.9133 58.2423 20.0089 58.2423 20.106V23.2246C58.2423 24.0953 57.8591 24.6361 57.2425 24.6361C56.7571 24.6361 56.3636 25.0296 56.3636 25.515C56.3636 26.0004 56.7571 26.3939 57.2425 26.3939C58.0208 26.3939 58.728 26.0736 59.2341 25.492C59.7352 24.9158 60.0001 24.1318 60.0001 23.2246V20.106C60 18.3062 58.9596 16.6601 57.3496 15.9124ZM48.7877 19.8183C50.893 19.8183 52.6058 21.5311 52.6058 23.6364C52.6058 25.7416 50.893 27.4544 48.7877 27.4544C46.6825 27.4544 44.9696 25.7416 44.9696 23.6364C44.9696 21.5311 46.6825 19.8183 48.7877 19.8183ZM12.1515 19.8183C14.2568 19.8183 15.9696 21.5311 15.9696 23.6364C15.9696 25.7416 14.2568 27.4544 12.1515 27.4544C10.0463 27.4544 8.33344 25.7416 8.33344 23.6364C8.33344 21.5311 10.0464 19.8183 12.1515 19.8183ZM14.796 12.7227C14.5896 12.5844 14.3952 12.4249 14.2155 12.2453L13.0091 11.0388L15.4042 9.84128C15.4206 9.83308 15.4373 9.82546 15.4537 9.81737L14.796 12.7227ZM27.1214 8.54554H29.2621C31.421 8.54554 33.525 9.15831 35.3466 10.3174L40.1333 13.3636H27.1214V8.54554Z" fill="#4A101D"/>
<path d="M20.6062 20.8785C20.1208 20.8785 19.7273 21.2721 19.7273 21.7574C19.7273 22.2428 20.1208 22.6364 20.6062 22.6364H40.3333C40.8187 22.6364 41.2122 22.2428 41.2122 21.7574C41.2122 21.2721 40.8187 20.8785 40.3333 20.8785H20.6062Z" fill="#4A101D"/>
</g>
<path d="M17.49 54.1C17.49 53.1387 17.7047 52.28 18.134 51.524C18.5727 50.7587 19.1653 50.166 19.912 49.746C20.668 49.3167 21.5127 49.102 22.446 49.102C23.538 49.102 24.4947 49.382 25.316 49.942C26.1373 50.502 26.7113 51.2767 27.038 52.266H24.784C24.56 51.7993 24.2427 51.4493 23.832 51.216C23.4307 50.9827 22.964 50.866 22.432 50.866C21.8627 50.866 21.354 51.0013 20.906 51.272C20.4673 51.5333 20.122 51.9067 19.87 52.392C19.6273 52.8773 19.506 53.4467 19.506 54.1C19.506 54.744 19.6273 55.3133 19.87 55.808C20.122 56.2933 20.4673 56.6713 20.906 56.942C21.354 57.2033 21.8627 57.334 22.432 57.334C22.964 57.334 23.4307 57.2173 23.832 56.984C24.2427 56.7413 24.56 56.3867 24.784 55.92H27.038C26.7113 56.9187 26.1373 57.698 25.316 58.258C24.504 58.8087 23.5473 59.084 22.446 59.084C21.5127 59.084 20.668 58.874 19.912 58.454C19.1653 58.0247 18.5727 57.432 18.134 56.676C17.7047 55.92 17.49 55.0613 17.49 54.1ZM28.2081 55.094C28.2081 54.31 28.3621 53.6147 28.6701 53.008C28.9874 52.4013 29.4121 51.9347 29.9441 51.608C30.4854 51.2813 31.0874 51.118 31.7501 51.118C32.3288 51.118 32.8328 51.2347 33.2621 51.468C33.7008 51.7013 34.0508 51.9953 34.3121 52.35V51.244H36.2861V59H34.3121V57.866C34.0601 58.23 33.7101 58.5333 33.2621 58.776C32.8234 59.0093 32.3148 59.126 31.7361 59.126C31.0828 59.126 30.4854 58.958 29.9441 58.622C29.4121 58.286 28.9874 57.8147 28.6701 57.208C28.3621 56.592 28.2081 55.8873 28.2081 55.094ZM34.3121 55.122C34.3121 54.646 34.2188 54.24 34.0321 53.904C33.8454 53.5587 33.5934 53.2973 33.2761 53.12C32.9588 52.9333 32.6181 52.84 32.2541 52.84C31.8901 52.84 31.5541 52.9287 31.2461 53.106C30.9381 53.2833 30.6861 53.5447 30.4901 53.89C30.3034 54.226 30.2101 54.6273 30.2101 55.094C30.2101 55.5607 30.3034 55.9713 30.4901 56.326C30.6861 56.6713 30.9381 56.9373 31.2461 57.124C31.5634 57.3107 31.8994 57.404 32.2541 57.404C32.6181 57.404 32.9588 57.3153 33.2761 57.138C33.5934 56.9513 33.8454 56.69 34.0321 56.354C34.2188 56.0087 34.3121 55.598 34.3121 55.122ZM40.1604 52.448C40.4124 52.0373 40.739 51.7153 41.1404 51.482C41.551 51.2487 42.0177 51.132 42.5404 51.132V53.19H42.0224C41.4064 53.19 40.9397 53.3347 40.6224 53.624C40.3144 53.9133 40.1604 54.4173 40.1604 55.136V59H38.2004V51.244H40.1604V52.448Z" fill="#4A101D"/>
<defs>
<clipPath id="clip0_1_593">
<rect width="60" height="36" fill="white"/>
</clipPath>
</defs>
</svg>
